<?xml version="1.0" encoding="utf-8"?>
<!-- Generator: Adobe Illustrator 23.0.2, SVG Export Plug-In . SVG Version: 6.00 Build 0)  -->
<svg version="1.1" id="Layer_1" xmlns="http://www.w3.org/2000/svg" xmlns:xlink="http://www.w3.org/1999/xlink" x="0px" y="0px"
	 viewBox="0 0 1024 1024" style="enable-background:new 0 0 1024 1024;" xml:space="preserve">
<style type="text/css">
	.st0{clip-path:url(#SVGID_2_);fill:url(#Background_Square_1_);}
	.st1{fill:none;}
	.st2{fill:#FFFFFF;}
</style>
<g id="Background_1_">
	<g>
		<defs>
			<circle id="SVGID_1_" cx="512" cy="512" r="458"/>
		</defs>
		<clipPath id="SVGID_2_">
			<use xlink:href="#SVGID_1_"  style="overflow:visible;"/>
		</clipPath>
		
			<linearGradient id="Background_Square_1_" gradientUnits="userSpaceOnUse" x1="512" y1="2436" x2="512" y2="1412" gradientTransform="matrix(1 0 0 1 0 -1412)">
			<stop  offset="0" style="stop-color:#006A1E"/>
			<stop  offset="1" style="stop-color:#3FFF91"/>
		</linearGradient>
		<rect id="Background_Square" class="st0" width="1024" height="1024"/>
	</g>
</g>
<g id="Logo">
	<g id="Corporate_Logo">
		<path id="Moon_Fill_1_" class="st1" d="M640.3,666.8l78.2-119.2c0,0,24.2,18.1,39.6,18.1c16.8,0,38.3-18.1,38.3-18.1l105.1,162.8
			c30.9-60.1,47.3-125.9,47.3-197.7c0-242.1-196.1-437.8-437.5-437.8S74.9,269.6,74.9,511.4c0,183.6,113.8,340.4,274.3,404.9
			l229-357.9L640.3,666.8z"/>
		<path id="MoonAndMountains" class="st2" d="M953.5,512.7c0-244.1-198.4-442.2-441.8-442.2c-118.2,0-229,45.7-312.2,128.9
			c-83,83-129,193.8-129,312c0,89.6,26.9,176.3,77.9,249.5c49.4,71.5,118.5,126.9,199.1,159.5l3.4,1.3l51.4-79.9
			c59.4-88.6,153.1-223.9,174.6-231.7c11.1-0.7,23.2,24.5,55.7,68.5L455.9,947.5h0.3c43-62.4,240.1-346.5,268.9-368
			c11.8,4.7,22.8,9.4,32.9,9.4c9.7,0,17.5-3.7,31.6-9.4c19.8,16.5,66.1,68.8,112.5,141.3c7.1-13.1,13.1-27.2,18.5-41.3
			C942.4,627.2,953.5,570.8,953.5,512.7z M797.7,540.9l-3.7,3.4c-0.3,0.3-20.8,16.8-35.6,16.8c-11.4,0-30.6-12.4-36.9-17.1l-3.7-3
			l-76.9,117.2l-62.1-108.4L347.5,910.5c-77.9-31.9-144-85.6-191.7-154.8C106.1,683.6,79.6,599,79.6,511.4
			c0-115.8,45-224.6,126.2-305.9s190-126.2,305.9-126.2c238.7,0,433.1,194.4,433.1,433.4c0,66.8-14.4,130.3-43.6,189L797.7,540.9z"
			/>
	</g>
</g>
<path class="st2" d="M333,301.5c0,10.8-8.7,19.5-19.5,19.5s-19.5-8.7-19.5-19.5s8.7-19.5,19.5-19.5S333,290.7,333,301.5z M445.8,281
	c-10.8,0-19.5,8.7-19.5,19.5S435,320,445.8,320s19.5-8.7,19.5-19.5S456.6,281,445.8,281z M578.2,282c-10.8,0-19.5,8.7-19.5,19.5
	s8.7,19.5,19.5,19.5s19.5-8.7,19.5-19.5S588.9,282,578.2,282z M710.5,282c-10.8,0-19.5,8.7-19.5,19.5s8.7,19.5,19.5,19.5
	s19.5-8.7,19.5-19.5S721.3,282,710.5,282z"/>
<path class="st2" d="M172.9,457.6c0,8.5-6.9,15.4-15.4,15.4s-15.4-6.9-15.4-15.4s6.9-15.4,15.4-15.4S172.9,449.1,172.9,457.6z
	 M258.7,441.4c-8.5,0-15.4,6.9-15.4,15.4s6.9,15.4,15.4,15.4s15.4-6.9,15.4-15.4C274.2,448.3,267.3,441.4,258.7,441.4z M360,442.2
	c-8.5,0-15.4,6.9-15.4,15.4S351.5,473,360,473s15.4-6.9,15.4-15.4C375.5,449.1,368.6,442.2,360,442.2z M461.3,442.2
	c-8.5,0-15.4,6.9-15.4,15.4s6.9,15.4,15.4,15.4s15.4-6.9,15.4-15.4C476.8,449.1,469.9,442.2,461.3,442.2z M172.9,421.2
	c0,8.5-6.9,15.4-15.4,15.4s-15.4-6.9-15.4-15.4s6.9-15.4,15.4-15.4S172.9,412.7,172.9,421.2z M258.7,405c-8.5,0-15.4,6.9-15.4,15.4
	s6.9,15.4,15.4,15.4s15.4-6.9,15.4-15.4C274.2,411.9,267.3,405,258.7,405z M360,405.8c-8.5,0-15.4,6.9-15.4,15.4s6.9,15.4,15.4,15.4
	s15.4-6.9,15.4-15.4C375.5,412.7,368.6,405.8,360,405.8z M461.3,405.8c-8.5,0-15.4,6.9-15.4,15.4s6.9,15.4,15.4,15.4
	s15.4-6.9,15.4-15.4C476.8,412.7,469.9,405.8,461.3,405.8z M578.1,457.6c0,8.5-6.9,15.4-15.4,15.4s-15.4-6.9-15.4-15.4
	s6.9-15.4,15.4-15.4C571.2,442.2,578.1,449.1,578.1,457.6z M664,441.4c-8.5,0-15.4,6.9-15.4,15.4s6.9,15.4,15.4,15.4
	s15.4-6.9,15.4-15.4S672.5,441.4,664,441.4z M765.3,442.2c-8.5,0-15.4,6.9-15.4,15.4s6.9,15.4,15.4,15.4s15.4-6.9,15.4-15.4
	S773.8,442.2,765.3,442.2z M866.6,442.2c-8.5,0-15.4,6.9-15.4,15.4s6.9,15.4,15.4,15.4s15.4-6.9,15.4-15.4S875.1,442.2,866.6,442.2z
	 M578.1,421.2c0,8.5-6.9,15.4-15.4,15.4s-15.4-6.9-15.4-15.4s6.9-15.4,15.4-15.4C571.2,405.8,578.1,412.7,578.1,421.2z M664,405
	c-8.5,0-15.4,6.9-15.4,15.4s6.9,15.4,15.4,15.4s15.4-6.9,15.4-15.4S672.5,405,664,405z M765.3,405.8c-8.5,0-15.4,6.9-15.4,15.4
	s6.9,15.4,15.4,15.4s15.4-6.9,15.4-15.4C780.7,412.7,773.8,405.8,765.3,405.8z M866.6,405.8c-8.5,0-15.4,6.9-15.4,15.4
	s6.9,15.4,15.4,15.4s15.4-6.9,15.4-15.4C882,412.7,875.1,405.8,866.6,405.8z"/>
</svg>
