<?xml version="1.0" encoding="utf-8"?>
<!-- Generator: Adobe Illustrator 23.0.2, SVG Export Plug-In . SVG Version: 6.00 Build 0)  -->
<svg version="1.1" id="Layer_1" xmlns="http://www.w3.org/2000/svg" xmlns:xlink="http://www.w3.org/1999/xlink" x="0px" y="0px"
	 viewBox="0 0 1024 1024" style="enable-background:new 0 0 1024 1024;" xml:space="preserve">
<style type="text/css">
	.st0{clip-path:url(#SVGID_2_);fill:url(#Background_Square_1_);}
	.st1{fill:none;}
	.st2{fill:#FFFFFF;}
</style>
<g id="Background">
	<defs>
		<circle id="SVGID_1_" cx="512" cy="512" r="458"/>
	</defs>
	<clipPath id="SVGID_2_">
		<use xlink:href="#SVGID_1_"  style="overflow:visible;"/>
	</clipPath>
	
		<linearGradient id="Background_Square_1_" gradientUnits="userSpaceOnUse" x1="512" y1="-1412" x2="512" y2="-388" gradientTransform="matrix(1 0 0 -1 0 -388)">
		<stop  offset="0" style="stop-color:#006A1E"/>
		<stop  offset="1" style="stop-color:#3FFF91"/>
	</linearGradient>
	<rect id="Background_Square" class="st0" width="1024" height="1024"/>
</g>
<path id="Moon_Fill_1_" class="st1" d="M640.3,666.8l78.2-119.2c0,0,24.2,18.1,39.6,18.1c16.8,0,38.3-18.1,38.3-18.1l105.1,162.8
	c30.9-60.1,47.3-125.9,47.3-197.7c0-242.1-196.1-437.8-437.5-437.8S74.9,269.6,74.9,511.4c0,183.6,113.8,340.4,274.3,404.9
	l229-357.9L640.3,666.8z"/>
<path class="st2" d="M953.5,512.7c0-244.1-198.4-442.2-441.8-442.2c-118.2,0-229,45.7-312.2,128.9c-83,83-129,193.8-129,312
	c0,89.6,26.9,176.3,77.9,249.5c49.4,71.5,118.5,126.9,199.1,159.5l3.4,1.3l51.4-79.9c59.4-88.6,153.1-223.9,174.6-231.7
	c11.1-0.7,23.2,24.5,55.7,68.5L455.9,947.5h0.3c43-62.4,240.1-346.5,268.9-368c11.8,4.7,22.8,9.4,32.9,9.4c9.7,0,17.5-3.7,31.6-9.4
	c19.8,16.5,66.1,68.8,112.5,141.3c7.1-13.1,13.1-27.2,18.5-41.3C942.4,627.2,953.5,570.8,953.5,512.7z M797.7,540.9l-3.7,3.4
	c-0.3,0.3-20.8,16.8-35.6,16.8c-11.4,0-30.6-12.4-36.9-17.1l-3.7-3l-76.9,117.2l-62.1-108.4L347.5,910.5
	c-77.9-31.9-144-85.6-191.7-154.8C106.1,683.6,79.6,599,79.6,511.4c0-115.8,45-224.6,126.2-305.9s190-126.2,305.9-126.2
	c238.7,0,433.1,194.4,433.1,433.4c0,66.8-14.4,130.3-43.6,189L797.7,540.9z M379.6,281c-10.8,0-19.5,8.7-19.5,19.5
	s8.7,19.5,19.5,19.5s19.5-8.7,19.5-19.5S390.5,281,379.6,281z M512.1,282c-10.8,0-19.5,8.7-19.5,19.5s8.7,19.5,19.5,19.5
	c10.8,0,19.5-8.7,19.5-19.5S522.8,282,512.1,282z M644.3,282c-10.8,0-19.5,8.7-19.5,19.5s8.7,19.5,19.5,19.5
	c10.8,0,19.5-8.7,19.5-19.5S655.2,282,644.3,282z M208.1,441.4c-8.5,0-15.4,6.9-15.4,15.4s6.9,15.4,15.4,15.4s15.4-6.9,15.4-15.4
	C223.6,448.3,216.6,441.4,208.1,441.4z M309.3,442.2c-8.5,0-15.4,6.9-15.4,15.4s6.9,15.4,15.4,15.4s15.4-6.9,15.4-15.4
	C324.8,449.1,318,442.2,309.3,442.2z M410.6,442.2c-8.5,0-15.4,6.9-15.4,15.4s6.9,15.4,15.4,15.4s15.4-6.9,15.4-15.4
	C426.1,449.1,419.2,442.2,410.6,442.2z M208.1,405c-8.5,0-15.4,6.9-15.4,15.4s6.9,15.4,15.4,15.4s15.4-6.9,15.4-15.4
	C223.6,411.9,216.6,405,208.1,405z M309.3,405.8c-8.5,0-15.4,6.9-15.4,15.4s6.9,15.4,15.4,15.4s15.4-6.9,15.4-15.4
	C324.8,412.7,318,405.8,309.3,405.8z M410.6,405.8c-8.5,0-15.4,6.9-15.4,15.4s6.9,15.4,15.4,15.4s15.4-6.9,15.4-15.4
	C426.1,412.7,419.2,405.8,410.6,405.8z M527.4,457.6c0,8.5-6.9,15.4-15.4,15.4s-15.4-6.9-15.4-15.4s6.9-15.4,15.4-15.4
	C520.5,442.2,527.4,449.1,527.4,457.6z M613.3,441.4c-8.5,0-15.4,6.9-15.4,15.4s6.9,15.4,15.4,15.4s15.4-6.9,15.4-15.4
	S621.8,441.4,613.3,441.4z M714.6,442.2c-8.5,0-15.4,6.9-15.4,15.4s6.9,15.4,15.4,15.4s15.4-6.9,15.4-15.4S723.1,442.2,714.6,442.2z
	 M815.9,442.2c-8.5,0-15.4,6.9-15.4,15.4s6.9,15.4,15.4,15.4s15.4-6.9,15.4-15.4S824.4,442.2,815.9,442.2z M527.4,421.2
	c0,8.5-6.9,15.4-15.4,15.4s-15.4-6.9-15.4-15.4s6.9-15.4,15.4-15.4C520.5,405.8,527.4,412.7,527.4,421.2z M613.3,405
	c-8.5,0-15.4,6.9-15.4,15.4s6.9,15.4,15.4,15.4s15.4-6.9,15.4-15.4S621.8,405,613.3,405z M714.6,405.8c-8.5,0-15.4,6.9-15.4,15.4
	s6.9,15.4,15.4,15.4s15.4-6.9,15.4-15.4C730,412.7,723.1,405.8,714.6,405.8z M815.9,405.8c-8.5,0-15.4,6.9-15.4,15.4
	s6.9,15.4,15.4,15.4s15.4-6.9,15.4-15.4C831.3,412.7,824.4,405.8,815.9,405.8z"/>
</svg>
